<mxfile host="app.diagrams.net" modified="2021-09-29T14:52:43.678Z" agent="5.0 (Windows NT 10.0; Win64; x64) AppleWebKit/537.36 (KHTML, like Gecko) Chrome/93.0.4577.82 Safari/537.36" etag="FbpSJuas6ESKGxcdzSET" version="15.1.4" type="github">
  <diagram id="GkK8J3sEJLq22ELp9hBo" name="Page-1">
    <mxGraphModel dx="1328" dy="746" grid="1" gridSize="10" guides="1" tooltips="1" connect="1" arrows="1" fold="1" page="1" pageScale="1" pageWidth="827" pageHeight="1169" math="0" shadow="0">
      <root>
        <mxCell id="0" />
        <mxCell id="1" parent="0" />
        <mxCell id="RAgHanEPKD7sBOhho6us-1" value="activity" style="rounded=1;whiteSpace=wrap;html=1;fillColor=#f8cecc;strokeColor=#b85450;" vertex="1" parent="1">
          <mxGeometry x="170" y="240" width="120" height="60" as="geometry" />
        </mxCell>
        <mxCell id="RAgHanEPKD7sBOhho6us-5" value="" style="edgeStyle=orthogonalEdgeStyle;rounded=0;orthogonalLoop=1;jettySize=auto;html=1;" edge="1" parent="1" source="RAgHanEPKD7sBOhho6us-2" target="RAgHanEPKD7sBOhho6us-1">
          <mxGeometry relative="1" as="geometry" />
        </mxCell>
        <mxCell id="RAgHanEPKD7sBOhho6us-2" value="handler" style="rounded=1;whiteSpace=wrap;html=1;fillColor=#dae8fc;strokeColor=#6c8ebf;" vertex="1" parent="1">
          <mxGeometry x="380" y="240" width="120" height="60" as="geometry" />
        </mxCell>
        <mxCell id="RAgHanEPKD7sBOhho6us-6" value="" style="edgeStyle=orthogonalEdgeStyle;rounded=0;orthogonalLoop=1;jettySize=auto;html=1;" edge="1" parent="1" source="RAgHanEPKD7sBOhho6us-3" target="RAgHanEPKD7sBOhho6us-2">
          <mxGeometry relative="1" as="geometry" />
        </mxCell>
        <mxCell id="RAgHanEPKD7sBOhho6us-3" value="thread" style="rounded=1;whiteSpace=wrap;html=1;fillColor=#d5e8d4;strokeColor=#82b366;" vertex="1" parent="1">
          <mxGeometry x="580" y="240" width="120" height="60" as="geometry" />
        </mxCell>
      </root>
    </mxGraphModel>
  </diagram>
</mxfile>
